# xmcd
#
# Track frame offsets:
#	150
#	22407
#	43512
#	69286
#	88786
#	112552
#	132368
#	152994
#	179961
#	204231
#	229929
#	255454
#	276591
#	295233
#	309989
#
# Disc length: 4390 seconds
#
# Revision: 0
# Processed by: cddbd v1.4PL0 Copyright (c) Steve Scherf et al.
# Submitted via: EasyCDDAExtractor 4.6.9.1
#
DISCID=db11240f
DTITLE=Various Artist - Blue Jazz Pub I
DYEAR=2001
DGENRE=Blues
TTITLE0=The sentimental touch
TTITLE1=They can't take that way from me
TTITLE2=Man man dada
TTITLE3=I was wrong
TTITLE4=Manman nanotte
TTITLE5=Benita
TTITLE6=Grog Mwen
TTITLE7=Mase tanp mwen
TTITLE8=El manisero (machann pistach)
TTITLE9=Troubadour
TTITLE10=Konfyans
TTITLE11=Love is a many splendored thing
TTITLE12=Gee baby, ain't I good to you
TTITLE13=Mini Jupe
TTITLE14=Corcovado
EXTD=
EXTT0=
EXTT1=
EXTT2=
EXTT3=
EXTT4=
EXTT5=
EXTT6=
EXTT7=
EXTT8=
EXTT9=
EXTT10=
EXTT11=
EXTT12=
EXTT13=
EXTT14=
PLAYORDER=
